<svg width="24" height="19" viewBox="0 0 24 19" fill="none" xmlns="http://www.w3.org/2000/svg">
<path d="M14.5805 8.63653C14.6521 9.09084 14.7033 9.54516 14.7033 10.1345C14.7033 15.2791 11.8281 18.9258 7.5 18.9258C3.35609 18.9258 0 14.8985 0 9.92578C0 4.95305 3.35609 0.925781 7.5 0.925781C9.52594 0.925781 11.2142 1.8098 12.5239 3.28322L10.4877 5.62838C9.93516 4.98989 8.96316 4.24092 7.5 4.24092C4.94203 4.24092 2.85469 6.78253 2.85469 9.92578C2.85469 13.069 4.94203 15.6106 7.5 15.6106C10.4672 15.6106 11.5825 13.0445 11.7564 11.7307H7.5V8.63648H14.5805V8.63653ZM21.8229 8.93827V6.32578H19.6354V8.93827H17.4583V11.5633H19.6354V14.1758H21.8229V11.5633H24V8.93827H21.8229Z" fill="#ACF162"/>
</svg>
