<svg width="24" height="25" viewBox="0 0 24 25" fill="none" xmlns="http://www.w3.org/2000/svg">
<path d="M12.0027 6.77248C8.59743 6.77248 5.85075 9.51978 5.85075 12.9258C5.85075 16.3318 8.59743 19.0791 12.0027 19.0791C15.4079 19.0791 18.1546 16.3318 18.1546 12.9258C18.1546 9.51978 15.4079 6.77248 12.0027 6.77248ZM12.0027 16.9262C9.80212 16.9262 8.00312 15.1322 8.00312 12.9258C8.00312 10.7194 9.79677 8.92534 12.0027 8.92534C14.2086 8.92534 16.0022 10.7194 16.0022 12.9258C16.0022 15.1322 14.2032 16.9262 12.0027 16.9262ZM19.8412 6.52078C19.8412 7.31873 19.1987 7.95602 18.4062 7.95602C17.6085 7.95602 16.9713 7.31337 16.9713 6.52078C16.9713 5.72819 17.6138 5.08555 18.4062 5.08555C19.1987 5.08555 19.8412 5.72819 19.8412 6.52078ZM23.9157 7.97744C23.8247 6.05487 23.3856 4.35187 21.9775 2.94876C20.5747 1.54566 18.8721 1.10652 16.9499 1.01013C14.9689 0.897666 9.03112 0.897666 7.05008 1.01013C5.1333 1.10117 3.43068 1.54031 2.02253 2.94341C0.614389 4.34651 0.180703 6.04951 0.0843279 7.97208C-0.0281093 9.95356 -0.0281093 15.8926 0.0843279 17.8741C0.175349 19.7967 0.614389 21.4997 2.02253 22.9028C3.43068 24.3059 5.12794 24.745 7.05008 24.8414C9.03112 24.9539 14.9689 24.9539 16.9499 24.8414C18.8721 24.7504 20.5747 24.3113 21.9775 22.9028C23.3803 21.4997 23.8193 19.7967 23.9157 17.8741C24.0281 15.8926 24.0281 9.95892 23.9157 7.97744ZM21.3564 20.0002C20.9388 21.0498 20.1303 21.8585 19.0755 22.2816C17.496 22.9082 13.7481 22.7636 12.0027 22.7636C10.2572 22.7636 6.50396 22.9028 4.92984 22.2816C3.88042 21.8639 3.07195 21.0552 2.64897 20.0002C2.02253 18.4204 2.16709 14.6716 2.16709 12.9258C2.16709 11.1799 2.02789 7.42584 2.64897 5.85136C3.06659 4.80172 3.87507 3.99306 4.92984 3.56999C6.50931 2.94341 10.2572 3.088 12.0027 3.088C13.7481 3.088 17.5014 2.94876 19.0755 3.56999C20.1249 3.9877 20.9334 4.79636 21.3564 5.85136C21.9828 7.43119 21.8383 11.1799 21.8383 12.9258C21.8383 14.6716 21.9828 18.4257 21.3564 20.0002Z" fill="#ACF162"/>
</svg>
