<svg width="24" height="25" viewBox="0 0 24 25" fill="none" xmlns="http://www.w3.org/2000/svg">
<path d="M21.5331 6.90701C21.5483 7.1695 21.5483 7.43204 21.5483 7.69453C21.5483 15.7007 16.5991 24.9258 7.55333 24.9258C4.7665 24.9258 2.17768 23.932 0 22.2071C0.395955 22.2633 0.776628 22.282 1.18782 22.282C3.48728 22.282 5.60407 21.3258 7.29444 19.6946C5.13199 19.6383 3.31979 17.8945 2.69542 15.4945C3.00001 15.5507 3.30456 15.5883 3.62439 15.5883C4.066 15.5883 4.50766 15.5132 4.9188 15.382C2.66499 14.8195 0.974582 12.382 0.974582 9.43827V9.3633C1.62938 9.8133 2.39087 10.0945 3.19792 10.132C1.87304 9.04448 1.00505 7.18825 1.00505 5.08824C1.00505 3.96326 1.24866 2.93201 1.67508 2.032C4.09642 5.707 7.73605 8.10696 11.8172 8.36951C11.7411 7.9195 11.6954 7.4508 11.6954 6.98204C11.6954 3.6445 13.8883 0.925781 16.6142 0.925781C18.0304 0.925781 19.3096 1.65703 20.2081 2.83828C21.3198 2.57579 22.3858 2.06952 23.33 1.37578C22.9644 2.78207 22.1878 3.96332 21.1675 4.71327C22.1574 4.58208 23.1168 4.2445 24 3.7758C23.3301 4.97575 22.4924 6.04446 21.5331 6.90701Z" fill="#ACF162"/>
</svg>
